<?xml version="1.0" standalone="no"?>
<!DOCTYPE svg PUBLIC "-//W3C//DTD SVG 20010904//EN"
 "http://www.w3.org/TR/2001/REC-SVG-20010904/DTD/svg10.dtd">
<svg version="1.0" xmlns="http://www.w3.org/2000/svg"
 width="1200.000000pt" height="228.000000pt" viewBox="0 0 1200.000000 228.000000"
 preserveAspectRatio="xMidYMid meet">

<g transform="translate(0.000000,228.000000) scale(0.100000,-0.100000)"
fill="#000000" stroke="none">
<path d="M1753 2205 c-7 -8 -13 -21 -13 -30 0 -8 -4 -15 -10 -15 -5 0 -10 -9
-10 -20 0 -11 -4 -20 -10 -20 -5 0 -10 -13 -10 -30 0 -16 -4 -30 -10 -30 -5 0
-10 -9 -10 -20 0 -11 -4 -20 -10 -20 -5 0 -10 -9 -10 -20 0 -11 -4 -20 -10
-20 -5 0 -10 -13 -10 -30 0 -16 -4 -30 -10 -30 -5 0 -10 -9 -10 -20 0 -11 -4
-20 -10 -20 -5 0 -10 -9 -10 -20 0 -11 -4 -20 -10 -20 -5 0 -10 -13 -10 -30 0
-16 -4 -30 -10 -30 -5 0 -10 -9 -10 -20 0 -11 -4 -20 -10 -20 -5 0 -10 -9 -10
-20 0 -11 -4 -20 -10 -20 -5 0 -10 -9 -10 -20 0 -11 -4 -20 -10 -20 -5 0 -10
-13 -10 -30 0 -16 -4 -30 -10 -30 -5 0 -10 -9 -10 -20 0 -11 -4 -20 -10 -20
-5 0 -10 -9 -10 -20 0 -11 -4 -20 -10 -20 -5 0 -10 -13 -10 -30 0 -16 -4 -30
-10 -30 -5 0 -10 -9 -10 -20 0 -11 -4 -20 -10 -20 -5 0 -10 -9 -10 -20 0 -11
-4 -20 -10 -20 -5 0 -10 -13 -10 -30 0 -16 -4 -30 -10 -30 -5 0 -10 -9 -10
-20 0 -11 -4 -20 -10 -20 -5 0 -10 -9 -10 -20 0 -11 -4 -20 -10 -20 -5 0 -10
-13 -10 -30 0 -16 -4 -30 -10 -30 -5 0 -10 -9 -10 -20 0 -11 -4 -20 -10 -20
-5 0 -10 -9 -10 -20 0 -11 -4 -20 -10 -20 -5 0 -10 -13 -10 -30 0 -16 -4 -30
-10 -30 -5 0 -10 -9 -10 -20 0 -11 -4 -20 -10 -20 -5 0 -10 -9 -10 -20 0 -11
-4 -20 -10 -20 -5 0 -10 -13 -10 -30 0 -16 -4 -30 -10 -30 -5 0 -10 -9 -10
-20 0 -11 -4 -20 -10 -20 -5 0 -10 -9 -10 -20 0 -11 -4 -20 -10 -20 -5 0 -10
-13 -10 -30 0 -16 -4 -30 -10 -30 -5 0 -10 -9 -10 -20 0 -13 7 -20 20 -20 11
0 20 5 20 10 0 6 23 10 50 10 28 0 50 5 50 10 0 6 23 10 50 10 28 0 50 5 50
10 0 6 23 10 50 10 28 0 50 5 50 10 0 6 16 10 36 10 38 0 64 18 64 44 0 9 5
16 10 16 6 0 10 9 10 20 0 11 5 20 10 20 6 0 10 9 10 20 0 11 5 20 10 20 6 0
10 14 10 30 0 17 5 30 10 30 6 0 10 9 10 20 0 11 5 20 10 20 6 0 10 9 10 20 0
11 5 20 10 20 6 0 10 9 10 20 0 11 5 20 10 20 6 0 10 14 10 30 0 17 5 30 10
30 6 0 10 9 10 20 0 11 5 20 10 20 6 0 10 9 10 20 0 11 5 20 10 20 6 0 10 9
10 20 0 11 5 20 10 20 6 0 10 9 10 20 0 11 5 20 10 20 6 0 10 14 10 30 0 17 5
30 10 30 6 0 10 9 10 20 0 11 7 20 15 20 18 0 85 -64 85 -80 0 -6 23 -33 50
-60 28 -27 50 -54 50 -60 0 -6 23 -33 50 -60 28 -27 50 -54 50 -60 0 -6 23
-33 50 -60 28 -27 50 -54 50 -60 0 -6 23 -33 50 -60 27 -27 50 -54 50 -60 0
-6 22 -33 50 -60 28 -27 50 -54 50 -60 0 -6 23 -33 50 -60 28 -27 50 -54 50
-60 0 -6 23 -33 50 -60 28 -27 50 -54 50 -60 0 -6 23 -33 50 -60 28 -27 50
-54 50 -60 0 -6 23 -33 50 -60 28 -27 50 -54 50 -60 0 -14 90 -103 97 -96 4 3
-4 14 -15 25 -12 10 -22 26 -22 35 0 9 -4 16 -10 16 -5 0 -10 9 -10 20 0 11
-4 20 -10 20 -5 0 -10 8 -10 18 0 10 -9 24 -20 32 -11 8 -20 22 -20 32 0 10
-4 18 -10 18 -5 0 -10 9 -10 20 0 11 -4 20 -10 20 -5 0 -10 9 -10 20 0 11 -4
20 -10 20 -5 0 -10 8 -10 18 0 10 -9 24 -20 32 -11 8 -20 22 -20 32 0 10 -4
18 -10 18 -5 0 -10 9 -10 20 0 11 -4 20 -10 20 -5 0 -10 8 -10 18 0 10 -9 24
-20 32 -11 8 -20 22 -20 32 0 10 -4 18 -10 18 -5 0 -10 9 -10 20 0 11 -4 20
-10 20 -5 0 -10 9 -10 20 0 11 -4 20 -10 20 -5 0 -10 8 -10 18 0 10 -9 24 -20
32 -11 8 -20 22 -20 32 0 10 -4 18 -10 18 -5 0 -10 9 -10 20 0 11 -4 20 -10
20 -5 0 -10 8 -10 18 0 10 -9 24 -20 32 -11 8 -20 22 -20 32 0 10 -4 18 -10
18 -5 0 -10 9 -10 20 0 11 -4 20 -10 20 -5 0 -10 9 -10 20 0 11 -4 20 -10 20
-5 0 -10 8 -10 18 0 10 -9 24 -20 32 -11 8 -20 22 -20 32 0 10 -4 18 -10 18
-5 0 -10 9 -10 20 0 11 -4 20 -10 20 -5 0 -10 8 -10 18 0 10 -9 24 -20 32 -11
8 -20 22 -20 32 0 10 -4 18 -10 18 -5 0 -10 9 -10 20 0 11 -4 20 -10 20 -5 0
-10 9 -10 20 0 11 -4 20 -10 20 -5 0 -10 8 -10 18 0 10 -9 24 -20 32 -11 8
-20 22 -20 32 0 10 -4 18 -10 18 -5 0 -10 9 -10 20 0 11 -4 20 -10 20 -5 0
-10 8 -10 18 0 10 -9 24 -20 32 -11 8 -20 22 -20 32 0 10 -4 18 -10 18 -5 0
-10 9 -10 20 0 11 -4 20 -10 20 -5 0 -10 9 -10 20 0 11 -4 20 -10 20 -5 0 -10
8 -10 18 0 10 -9 24 -20 32 -11 8 -20 22 -20 32 0 10 -4 18 -10 18 -5 0 -10 9
-10 20 0 11 -4 20 -10 20 -5 0 -10 8 -10 18 0 10 -9 24 -20 32 -11 8 -20 22
-20 32 0 10 -4 18 -10 18 -5 0 -10 9 -10 20 0 11 -4 20 -10 20 -5 0 -10 9 -10
20 0 11 -4 20 -10 20 -5 0 -10 8 -10 18 0 10 -9 24 -20 32 -11 8 -20 22 -20
32 0 10 -4 18 -10 18 -5 0 -10 9 -10 20 0 23 -10 25 -27 5z"/>
<path d="M1573 2145 c-7 -8 -13 -21 -13 -30 0 -8 -4 -15 -10 -15 -5 0 -10 -8
-10 -18 0 -10 -9 -24 -20 -32 -11 -8 -20 -22 -20 -32 0 -10 -4 -18 -10 -18 -5
0 -10 -8 -10 -18 0 -10 -9 -24 -20 -32 -11 -8 -20 -22 -20 -32 0 -10 -4 -18
-10 -18 -5 0 -10 -8 -10 -18 0 -10 -9 -24 -20 -32 -11 -8 -20 -21 -20 -30 0
-9 -9 -22 -20 -30 -11 -8 -20 -22 -20 -32 0 -10 -4 -18 -10 -18 -5 0 -10 -8
-10 -18 0 -10 -9 -24 -20 -32 -11 -8 -20 -22 -20 -32 0 -10 -4 -18 -10 -18 -5
0 -10 -8 -10 -18 0 -10 -9 -24 -20 -32 -11 -8 -20 -22 -20 -32 0 -10 -4 -18
-10 -18 -5 0 -10 -8 -10 -18 0 -10 -9 -24 -20 -32 -11 -8 -20 -22 -20 -32 0
-10 -4 -18 -10 -18 -5 0 -10 -8 -10 -18 0 -10 -9 -24 -20 -32 -11 -8 -20 -21
-20 -30 0 -9 -9 -22 -20 -30 -11 -8 -20 -22 -20 -32 0 -10 -4 -18 -10 -18 -5
0 -10 -8 -10 -18 0 -10 -9 -24 -20 -32 -11 -8 -20 -22 -20 -32 0 -10 -4 -18
-10 -18 -5 0 -10 -8 -10 -18 0 -10 -9 -24 -20 -32 -11 -8 -20 -22 -20 -32 0
-10 -4 -18 -10 -18 -5 0 -10 -8 -10 -18 0 -10 -9 -24 -20 -32 -11 -8 -20 -22
-20 -32 0 -10 -4 -18 -10 -18 -5 0 -10 -8 -10 -18 0 -10 -9 -24 -20 -32 -11
-8 -20 -21 -20 -30 0 -9 -9 -22 -20 -30 -11 -8 -20 -22 -20 -32 0 -10 -4 -18
-10 -18 -5 0 -10 -8 -10 -18 0 -10 -9 -24 -20 -32 -11 -8 -20 -22 -20 -32 0
-10 -4 -18 -10 -18 -5 0 -10 -8 -10 -18 0 -10 -9 -24 -20 -32 -11 -8 -20 -22
-20 -32 0 -10 -4 -18 -10 -18 -5 0 -10 -8 -10 -18 0 -10 -9 -24 -20 -32 -11
-8 -20 -21 -20 -30 0 -9 -9 -22 -20 -30 -11 -8 -20 -22 -20 -32 0 -10 -4 -18
-10 -18 -5 0 -10 -8 -10 -18 0 -10 -9 -24 -20 -32 -11 -8 -20 -22 -20 -32 0
-10 -4 -18 -10 -18 -5 0 -10 -8 -10 -18 0 -10 -9 -24 -20 -32 -11 -8 -20 -22
-20 -32 0 -10 -4 -18 -10 -18 -5 0 -10 -8 -10 -18 0 -10 -9 -24 -20 -32 -11
-8 -20 -22 -20 -32 0 -10 -4 -18 -10 -18 -5 0 -10 -9 -10 -20 0 -11 -4 -20
-10 -20 -5 0 -10 -4 -10 -10 0 -5 18 -10 40 -10 22 0 40 5 40 10 0 6 27 10 60
10 33 0 60 4 60 10 0 6 27 10 60 10 33 0 60 4 60 10 0 6 23 10 50 10 28 0 50
5 50 10 0 6 30 10 70 10 40 0 70 4 70 10 0 6 23 10 50 10 28 0 50 5 50 10 0 6
30 10 70 10 40 0 70 4 70 10 0 6 27 10 60 10 33 0 60 4 60 10 0 6 27 10 60 10
33 0 60 4 60 10 0 6 27 10 60 10 33 0 60 4 60 10 0 6 27 10 60 10 33 0 60 4
60 10 0 6 23 10 50 10 28 0 50 5 50 10 0 6 30 10 70 10 40 0 70 4 70 10 0 6
27 10 60 10 76 0 78 14 10 80 -27 27 -50 54 -50 60 0 6 -36 46 -80 90 -44 44
-80 86 -80 95 0 11 -12 15 -50 15 -27 0 -50 -4 -50 -10 0 -6 -27 -10 -60 -10
-33 0 -60 -4 -60 -10 0 -6 -30 -10 -70 -10 -40 0 -70 -4 -70 -10 0 -6 -27 -10
-60 -10 -33 0 -60 -4 -60 -10 0 -6 -27 -10 -60 -10 -33 0 -60 -4 -60 -10 0 -6
-27 -10 -60 -10 -33 0 -60 -4 -60 -10 0 -5 -9 -10 -20 -10 -16 0 -20 7 -20 30
0 17 5 30 10 30 6 0 10 9 10 20 0 11 5 20 10 20 6 0 10 14 10 30 0 17 5 30 10
30 6 0 10 9 10 20 0 11 5 20 10 20 6 0 10 9 10 20 0 11 5 20 10 20 6 0 10 14
10 30 0 17 5 30 10 30 6 0 10 9 10 20 0 11 5 20 10 20 6 0 10 14 10 30 0 17 5
30 10 30 6 0 10 9 10 20 0 11 5 20 10 20 6 0 10 14 10 30 0 17 5 30 10 30 6 0
10 9 10 20 0 11 5 20 10 20 6 0 10 9 10 20 0 11 5 20 10 20 6 0 10 14 10 30 0
17 5 30 10 30 6 0 10 9 10 20 0 11 5 20 10 20 6 0 10 14 10 30 0 17 5 30 10
30 6 0 10 9 10 20 0 11 5 20 10 20 6 0 10 14 10 30 0 17 5 30 10 30 6 0 10 9
10 20 0 11 5 20 10 20 6 0 10 14 10 30 0 17 5 30 10 30 6 0 10 9 10 20 0 11 5
20 10 20 6 0 10 14 10 30 0 17 5 30 10 30 6 0 10 9 10 20 0 11 5 20 10 20 6 0
10 9 10 20 0 11 5 20 10 20 6 0 10 14 10 30 0 17 5 30 10 30 6 0 10 9 10 20 0
11 5 20 10 20 6 0 10 14 10 30 0 17 5 30 10 30 6 0 10 9 10 20 0 11 5 20 10
20 6 0 10 14 10 30 0 17 5 30 10 30 6 0 10 9 10 20 0 11 5 20 10 20 6 0 10 14
10 30 0 17 5 30 10 30 6 0 10 9 10 20 0 11 5 20 10 20 6 0 10 9 10 20 0 11 5
20 10 20 6 0 10 5 10 10 0 14 -13 12 -27 -5z"/>
<path d="M3540 1740 l0 -200 120 0 c113 0 120 1 120 20 0 19 -7 20 -100 20
l-100 0 0 180 c0 173 -1 180 -20 180 -19 0 -20 -7 -20 -200z"/>
<path d="M3860 1740 l0 -200 106 0 c78 0 109 4 120 14 8 8 14 17 14 20 0 3
-45 6 -100 6 l-100 0 0 70 0 70 80 0 c73 0 80 2 80 20 0 18 -7 20 -80 20 l-80
0 0 70 0 70 100 0 c55 0 100 3 100 6 0 3 -6 12 -14 20 -11 10 -42 14 -120 14
l-106 0 0 -200z"/>
<path d="M4180 1740 c0 -193 1 -200 20 -200 19 0 20 7 20 130 0 80 4 130 10
130 6 0 10 -9 10 -20 0 -11 5 -20 10 -20 6 0 10 -9 10 -20 0 -11 5 -20 10 -20
6 0 10 -9 10 -20 0 -11 5 -20 10 -20 6 0 10 -12 10 -26 0 -26 20 -54 40 -54
17 0 40 26 40 44 0 9 5 16 10 16 6 0 10 9 10 20 0 11 5 20 10 20 6 0 10 9 10
20 0 11 5 20 10 20 6 0 10 14 10 30 0 17 5 30 10 30 6 0 10 -50 10 -130 0
-123 1 -130 20 -130 19 0 20 7 20 200 0 193 -1 200 -20 200 -13 0 -20 -7 -20
-20 0 -11 -4 -20 -10 -20 -5 0 -10 -9 -10 -20 0 -11 -4 -20 -10 -20 -5 0 -10
-9 -10 -20 0 -11 -4 -20 -10 -20 -5 0 -10 -13 -10 -30 0 -16 -4 -30 -10 -30
-5 0 -10 -9 -10 -20 0 -11 -4 -20 -10 -20 -5 0 -10 -9 -10 -20 0 -11 -3 -20
-6 -20 -11 0 -34 29 -34 44 0 9 -4 16 -10 16 -5 0 -10 9 -10 20 0 11 -4 20
-10 20 -5 0 -10 9 -10 20 0 11 -4 20 -10 20 -5 0 -10 14 -10 30 0 17 -4 30
-10 30 -5 0 -10 7 -10 16 0 20 -24 44 -44 44 -14 0 -16 -25 -16 -200z"/>
<path d="M4620 1740 l0 -200 100 0 c60 0 100 4 100 10 0 6 7 10 16 10 31 0 44
27 44 91 0 51 -4 65 -22 80 l-21 19 21 19 c16 13 22 30 22 60 0 34 -6 48 -35
76 l-34 35 -96 0 -95 0 0 -200z m195 135 c14 -13 25 -33 25 -45 0 -11 -11 -32
-25 -45 -21 -22 -33 -25 -90 -25 l-65 0 0 70 0 70 65 0 c57 0 69 -3 90 -25z
m11 -169 c31 -31 10 -106 -30 -106 -9 0 -16 -4 -16 -10 0 -16 -89 -12 -106 4
-9 9 -14 35 -14 70 l0 56 76 0 c52 0 80 -4 90 -14z"/>
<path d="M5073 1925 c-7 -8 -13 -26 -13 -40 0 -14 -4 -25 -10 -25 -5 0 -10
-13 -10 -30 0 -16 -4 -30 -10 -30 -5 0 -10 -9 -10 -20 0 -11 -4 -20 -10 -20
-5 0 -10 -13 -10 -30 0 -16 -4 -30 -10 -30 -5 0 -10 -13 -10 -30 0 -16 -4 -30
-10 -30 -5 0 -10 -9 -10 -20 0 -11 -4 -20 -10 -20 -5 0 -10 -13 -10 -30 0 -21
5 -30 16 -30 22 0 44 25 44 50 0 39 23 50 104 50 69 0 76 -2 76 -20 0 -11 5
-20 10 -20 6 0 10 -7 10 -16 0 -15 23 -44 34 -44 3 0 6 18 6 40 0 22 -4 40
-10 40 -5 0 -10 14 -10 30 0 17 -4 30 -10 30 -5 0 -10 14 -10 30 0 17 -4 30
-10 30 -5 0 -10 9 -10 20 0 11 -4 20 -10 20 -5 0 -10 14 -10 30 0 17 -4 30
-10 30 -5 0 -10 14 -10 30 0 17 -4 30 -10 30 -5 0 -10 9 -10 20 0 23 -29 26
-47 5z m33 -99 c8 -8 14 -26 14 -40 0 -14 5 -26 10 -26 6 0 10 -9 10 -20 0
-11 5 -20 10 -20 6 0 10 -9 10 -20 0 -18 -7 -20 -60 -20 l-60 0 0 30 c0 17 5
30 10 30 6 0 10 14 10 30 0 17 5 30 10 30 6 0 10 9 10 20 0 24 6 25 26 6z"/>
<path d="M5353 1905 c-18 -19 -33 -41 -33 -50 0 -8 -4 -15 -10 -15 -6 0 -10
-40 -10 -100 0 -60 4 -100 10 -100 6 0 10 -7 10 -15 0 -20 45 -65 65 -65 8 0
15 -4 15 -10 0 -5 18 -10 40 -10 22 0 40 5 40 10 0 6 7 10 15 10 20 0 65 45
65 65 0 8 5 15 10 15 16 0 12 89 -4 106 -9 9 -35 14 -70 14 -49 0 -56 -2 -56
-20 0 -16 7 -20 36 -20 19 0 42 -6 50 -14 16 -17 19 -46 4 -46 -5 0 -10 -7
-10 -16 0 -20 -24 -44 -44 -44 -9 0 -16 -4 -16 -10 0 -5 -11 -10 -25 -10 -33
0 -75 42 -75 75 0 14 -4 25 -10 25 -6 0 -10 27 -10 60 0 33 4 60 10 60 6 0 10
11 10 25 0 36 42 75 80 75 33 0 80 -38 80 -65 0 -10 10 -15 30 -15 17 0 30 5
30 10 0 6 -4 10 -10 10 -5 0 -10 7 -10 15 0 9 -16 31 -35 50 -31 31 -40 35
-87 34 -47 0 -57 -4 -85 -34z"/>
<path d="M5760 1920 c0 -11 -4 -20 -10 -20 -5 0 -10 -13 -10 -30 0 -16 -4 -30
-10 -30 -5 0 -10 -9 -10 -20 0 -11 -4 -20 -10 -20 -5 0 -10 -13 -10 -30 0 -16
-4 -30 -10 -30 -5 0 -10 -13 -10 -30 0 -16 -4 -30 -10 -30 -5 0 -10 -13 -10
-30 0 -16 -4 -30 -10 -30 -5 0 -10 -9 -10 -20 0 -11 -4 -20 -10 -20 -5 0 -10
-9 -10 -20 0 -12 7 -20 16 -20 20 0 44 24 44 44 0 9 5 16 10 16 6 0 10 9 10
20 0 18 7 20 76 20 81 0 104 -11 104 -50 0 -12 6 -28 14 -36 21 -21 46 -17 46
6 0 11 -4 20 -10 20 -5 0 -10 14 -10 30 0 17 -4 30 -10 30 -5 0 -10 14 -10 30
0 17 -4 30 -10 30 -5 0 -10 9 -10 20 0 11 -4 20 -10 20 -5 0 -10 14 -10 30 0
17 -4 30 -10 30 -5 0 -10 14 -10 30 0 17 -4 30 -10 30 -5 0 -10 12 -10 26 0
14 -6 32 -14 40 -21 21 -46 17 -46 -6z m40 -110 c0 -16 5 -30 10 -30 6 0 10
-13 10 -30 0 -16 5 -30 10 -30 6 0 10 -9 10 -20 0 -18 -7 -20 -60 -20 -53 0
-60 2 -60 20 0 11 5 20 10 20 6 0 10 14 10 30 0 17 5 30 10 30 6 0 10 14 10
30 0 23 4 30 20 30 16 0 20 -7 20 -30z"/>
<path d="M6200 1930 c0 -5 -7 -10 -16 -10 -23 0 -44 -25 -44 -53 0 -14 -6 -28
-12 -31 -10 -5 -10 -7 0 -12 6 -3 12 -17 12 -31 0 -28 21 -53 44 -53 9 0 16
-4 16 -10 0 -5 23 -10 50 -10 28 0 50 -4 50 -10 0 -5 9 -10 20 -10 31 0 28
-63 -5 -95 -25 -25 -95 -36 -95 -15 0 6 -9 10 -20 10 -11 0 -20 5 -20 10 0 6
-13 10 -30 10 -23 0 -30 -4 -30 -20 0 -13 7 -20 20 -20 11 0 20 -4 20 -10 0
-5 9 -10 20 -10 11 0 20 -4 20 -10 0 -5 23 -10 50 -10 28 0 50 5 50 10 0 6 7
10 15 10 9 0 27 11 40 25 45 44 30 155 -19 155 -9 0 -16 5 -16 10 0 6 -22 10
-50 10 -27 0 -50 5 -50 10 0 6 -9 10 -20 10 -17 0 -20 7 -20 50 0 43 3 50 20
50 11 0 20 5 20 10 0 6 18 10 40 10 22 0 40 -4 40 -10 0 -5 9 -10 20 -10 11 0
20 -4 20 -10 0 -5 5 -10 10 -10 18 0 10 31 -15 55 -20 21 -34 25 -80 25 -30 0
-55 -4 -55 -10z"/>
<path d="M6480 1740 l0 -200 120 0 c113 0 120 1 120 20 0 19 -7 20 -100 20
l-100 0 0 70 0 70 80 0 c73 0 80 2 80 20 0 18 -7 20 -80 20 l-80 0 0 70 0 70
100 0 c93 0 100 1 100 20 0 19 -7 20 -120 20 l-120 0 0 -200z"/>
<path d="M6800 1740 c0 -193 1 -200 20 -200 19 0 20 7 20 90 l0 90 50 0 c41 0
50 -3 50 -18 0 -10 9 -24 20 -32 11 -8 20 -22 20 -32 0 -10 5 -18 10 -18 6 0
10 -9 10 -20 0 -11 5 -20 10 -20 6 0 10 -9 10 -20 0 -13 7 -20 20 -20 16 0 20
7 20 30 0 17 -4 30 -10 30 -5 0 -10 9 -10 20 0 11 -4 20 -10 20 -5 0 -10 9
-10 20 0 11 -4 20 -10 20 -20 0 -9 33 20 60 27 25 30 34 30 90 0 63 -13 90
-44 90 -9 0 -16 5 -16 10 0 6 -40 10 -100 10 l-100 0 0 -200z m195 135 c33
-32 36 -95 5 -95 -11 0 -20 -4 -20 -10 0 -6 -30 -10 -70 -10 l-70 0 0 55 c0
72 12 84 78 85 43 0 57 -5 77 -25z"/>
<path d="M7120 1920 c0 -17 7 -20 46 -20 72 0 74 -5 74 -194 0 -159 1 -166 20
-166 19 0 20 7 20 180 l0 180 50 0 c43 0 50 3 50 20 0 19 -7 20 -130 20 -123
0 -130 -1 -130 -20z"/>
<path d="M7460 1740 c0 -193 1 -200 20 -200 19 0 20 7 20 200 0 193 -1 200
-20 200 -19 0 -20 -7 -20 -200z"/>
<path d="M7620 1740 c0 -193 1 -200 20 -200 19 0 20 7 20 90 l0 90 80 0 c73 0
80 2 80 20 0 18 -7 20 -80 20 l-80 0 0 70 0 70 100 0 c93 0 100 1 100 20 0 19
-7 20 -120 20 l-120 0 0 -200z"/>
<path d="M7940 1740 c0 -193 1 -200 20 -200 19 0 20 7 20 200 0 193 -1 200
-20 200 -19 0 -20 -7 -20 -200z"/>
<path d="M8100 1740 c0 -193 1 -200 20 -200 18 0 20 7 20 60 0 33 4 60 10 60
6 0 10 7 10 15 0 9 11 27 25 41 22 22 27 23 40 10 8 -8 15 -21 15 -28 0 -8 9
-20 20 -28 11 -8 20 -22 20 -32 0 -10 5 -18 10 -18 6 0 10 -7 10 -15 0 -20 45
-65 65 -65 22 0 19 33 -5 50 -11 8 -20 22 -20 32 0 10 -4 18 -10 18 -5 0 -10
8 -10 18 0 10 -9 24 -20 32 -11 8 -20 22 -20 32 0 10 -4 18 -10 18 -5 0 -10
16 -10 36 0 28 8 43 40 74 22 21 40 46 40 54 0 9 5 16 10 16 6 0 10 5 10 10 0
6 -13 10 -30 10 -21 0 -30 -5 -30 -16 0 -8 -22 -37 -50 -64 -27 -27 -50 -54
-50 -60 0 -11 -44 -60 -55 -60 -3 0 -5 45 -5 100 0 93 -1 100 -20 100 -19 0
-20 -7 -20 -200z"/>
<path d="M8533 1925 c-7 -8 -13 -21 -13 -30 0 -8 -4 -15 -10 -15 -5 0 -10 -13
-10 -30 0 -16 -4 -30 -10 -30 -5 0 -10 -13 -10 -30 0 -16 -4 -30 -10 -30 -5 0
-10 -13 -10 -30 0 -16 -4 -30 -10 -30 -5 0 -10 -9 -10 -20 0 -11 -4 -20 -10
-20 -5 0 -10 -13 -10 -30 0 -16 -4 -30 -10 -30 -5 0 -10 -13 -10 -30 0 -23 4
-30 20 -30 13 0 20 7 20 20 0 11 5 20 10 20 6 0 10 7 10 16 0 33 26 44 104 44
l76 0 0 -30 c0 -16 5 -30 10 -30 6 0 10 -9 10 -20 0 -13 7 -20 20 -20 17 0 20
7 20 40 0 22 -4 40 -10 40 -5 0 -10 9 -10 20 0 11 -4 20 -10 20 -5 0 -10 14
-10 30 0 17 -4 30 -10 30 -5 0 -10 14 -10 30 0 17 -4 30 -10 30 -5 0 -10 14
-10 30 0 17 -4 30 -10 30 -5 0 -10 9 -10 20 0 11 -4 20 -10 20 -5 0 -10 14
-10 30 0 33 -25 41 -47 15z m33 -99 c8 -8 14 -26 14 -40 0 -14 5 -26 10 -26 6
0 10 -13 10 -30 0 -16 5 -30 10 -30 6 0 10 -4 10 -10 0 -6 -27 -10 -60 -10
l-60 0 0 30 c0 17 5 30 10 30 6 0 10 14 10 30 0 17 5 30 10 30 6 0 10 9 10 20
0 24 6 25 26 6z"/>
<path d="M8820 1930 c0 -5 -7 -10 -16 -10 -31 0 -44 -27 -44 -90 0 -63 13 -90
44 -90 9 0 16 -4 16 -10 0 -5 23 -10 50 -10 28 0 50 -4 50 -10 0 -5 9 -10 20
-10 31 0 28 -63 -5 -95 -25 -25 -95 -36 -95 -15 0 6 -9 10 -20 10 -11 0 -20 5
-20 10 0 6 -13 10 -30 10 -23 0 -30 -4 -30 -20 0 -13 7 -20 20 -20 11 0 20 -4
20 -10 0 -5 9 -10 20 -10 11 0 20 -4 20 -10 0 -6 27 -10 60 -10 33 0 60 4 60
10 0 6 7 10 16 10 31 0 44 27 44 90 0 63 -13 90 -44 90 -9 0 -16 5 -16 10 0 6
-18 10 -40 10 -22 0 -40 5 -40 10 0 6 -7 10 -16 10 -26 0 -44 26 -44 64 0 29
4 36 20 36 11 0 20 5 20 10 0 6 18 10 40 10 22 0 40 -4 40 -10 0 -5 9 -10 20
-10 11 0 20 -4 20 -10 0 -5 5 -10 10 -10 6 0 10 14 10 30 0 23 -4 30 -20 30
-11 0 -20 5 -20 10 0 6 -27 10 -60 10 -33 0 -60 -4 -60 -10z"/>
<path d="M9100 1740 c0 -193 1 -200 20 -200 19 0 20 7 20 200 0 193 -1 200
-20 200 -19 0 -20 -7 -20 -200z"/>
<path d="M9400 1740 c0 -193 1 -200 20 -200 18 0 20 7 20 80 l0 80 75 0 c73 0
77 1 110 35 32 31 35 40 35 90 0 30 -4 55 -10 55 -5 0 -10 9 -10 20 0 13 -7
20 -20 20 -11 0 -20 5 -20 10 0 6 -40 10 -100 10 l-100 0 0 -200z m195 135
c16 -15 25 -36 25 -55 0 -50 -38 -80 -100 -80 -66 0 -80 14 -80 80 0 66 12 79
78 80 43 0 57 -5 77 -25z"/>
<path d="M9753 1925 c-20 -22 -18 -351 2 -371 13 -14 17 -14 30 0 11 10 15 36
15 90 l0 76 36 0 c38 0 64 -18 64 -44 0 -9 5 -16 10 -16 6 0 10 -9 10 -20 0
-11 5 -20 10 -20 6 0 10 -7 10 -15 0 -20 45 -65 65 -65 8 0 15 9 15 20 0 11
-4 20 -10 20 -5 0 -10 8 -10 18 0 10 -9 24 -20 32 -11 8 -20 22 -20 32 0 10
-4 18 -10 18 -20 0 -9 33 20 60 17 15 30 35 30 44 0 9 5 16 10 16 6 0 10 14
10 30 0 17 -4 30 -10 30 -5 0 -10 7 -10 16 0 20 -24 44 -44 44 -9 0 -16 5 -16
10 0 17 -173 12 -187 -5z m167 -35 c0 -5 9 -10 20 -10 17 0 20 -7 20 -46 0
-63 -15 -74 -94 -74 l-66 0 0 70 0 70 60 0 c33 0 60 -4 60 -10z"/>
<path d="M10180 1930 c0 -5 -7 -10 -15 -10 -9 0 -27 -11 -40 -25 -24 -23 -25
-29 -25 -155 0 -126 1 -132 25 -155 13 -14 31 -25 40 -25 8 0 15 -4 15 -10 0
-5 23 -10 50 -10 28 0 50 5 50 10 0 6 7 10 16 10 20 0 44 24 44 44 0 9 5 16
10 16 6 0 10 47 10 120 0 73 -4 120 -10 120 -5 0 -10 7 -10 16 0 20 -24 44
-44 44 -9 0 -16 5 -16 10 0 6 -22 10 -50 10 -27 0 -50 -4 -50 -10z m80 -40 c0
-5 9 -10 20 -10 13 0 20 -7 20 -20 0 -11 5 -20 10 -20 6 0 10 -40 10 -100 0
-60 -4 -100 -10 -100 -5 0 -10 -9 -10 -20 0 -13 -7 -20 -20 -20 -11 0 -20 -4
-20 -10 0 -5 -13 -10 -30 -10 -16 0 -30 5 -30 10 0 6 -9 10 -20 10 -13 0 -20
7 -20 20 0 11 -4 20 -10 20 -6 0 -10 42 -10 106 0 109 8 134 44 134 9 0 16 5
16 10 0 6 14 10 30 10 17 0 30 -4 30 -10z"/>
<path d="M10460 1740 c0 -193 1 -200 20 -200 18 0 20 7 20 76 0 98 6 104 104
104 69 0 76 2 76 20 0 19 -7 20 -90 20 l-90 0 0 56 c0 77 10 84 114 84 79 0
86 2 86 20 0 19 -7 20 -120 20 l-120 0 0 -200z"/>
<path d="M10780 1740 l0 -200 120 0 c113 0 120 1 120 20 0 18 -7 20 -86 20
-104 0 -114 7 -114 84 l0 56 90 0 c83 0 90 1 90 20 0 19 -7 20 -90 20 l-90 0
0 70 0 70 100 0 c93 0 100 1 100 20 0 19 -7 20 -120 20 l-120 0 0 -200z"/>
<path d="M11160 1930 c0 -5 -7 -10 -16 -10 -20 0 -44 -24 -44 -44 0 -9 -4 -16
-10 -16 -5 0 -10 -13 -10 -30 0 -16 5 -30 10 -30 6 0 10 -7 10 -16 0 -20 24
-44 44 -44 9 0 16 -4 16 -10 0 -5 20 -10 45 -10 52 0 95 -32 95 -70 0 -25 -22
-50 -44 -50 -9 0 -16 -4 -16 -10 0 -5 -18 -10 -40 -10 -22 0 -40 5 -40 10 0 6
-9 10 -20 10 -11 0 -20 5 -20 10 0 6 -9 10 -20 10 -12 0 -20 -7 -20 -16 0 -20
24 -44 44 -44 9 0 16 -4 16 -10 0 -6 27 -10 60 -10 33 0 60 4 60 10 0 6 7 10
15 10 9 0 27 11 40 25 19 18 25 35 25 70 0 25 -4 45 -10 45 -5 0 -10 9 -10 20
0 13 -7 20 -20 20 -11 0 -20 5 -20 10 0 6 -22 10 -50 10 -27 0 -50 5 -50 10 0
6 -9 10 -20 10 -13 0 -20 7 -20 19 0 11 -6 22 -12 25 -10 5 -10 7 0 12 6 3 12
12 12 21 0 45 97 61 131 22 17 -19 20 -20 34 -5 15 14 15 18 1 31 -8 8 -22 15
-30 15 -9 0 -16 5 -16 10 0 6 -22 10 -50 10 -27 0 -50 -4 -50 -10z"/>
<path d="M11440 1740 c0 -110 3 -200 6 -200 3 0 12 6 20 14 11 12 14 53 14
200 0 179 -1 186 -20 186 -19 0 -20 -7 -20 -200z"/>
<path d="M3540 820 l0 -460 70 0 70 0 0 460 0 460 -70 0 -70 0 0 -460z"/>
<path d="M3920 820 l0 -460 70 0 70 0 0 310 c0 200 4 310 10 310 6 0 10 -8 10
-18 0 -10 9 -24 20 -32 11 -8 20 -21 20 -30 0 -9 9 -22 20 -30 11 -8 20 -21
20 -30 0 -9 9 -22 20 -30 11 -8 20 -21 20 -30 0 -9 9 -22 20 -30 11 -8 20 -22
20 -32 0 -10 5 -18 10 -18 6 0 10 -8 10 -18 0 -10 9 -24 20 -32 11 -8 20 -21
20 -30 0 -9 9 -22 20 -30 11 -8 20 -21 20 -30 0 -9 9 -22 20 -30 11 -8 20 -21
20 -30 0 -9 9 -22 20 -30 11 -8 20 -21 20 -30 0 -9 9 -22 20 -30 11 -8 20 -22
20 -32 0 -16 10 -18 70 -18 l70 0 0 460 0 460 -70 0 -70 0 0 -310 c0 -171 -3
-310 -6 -310 -11 0 -34 29 -34 42 0 8 -9 20 -20 28 -11 8 -20 21 -20 30 0 9
-9 22 -20 30 -11 8 -20 21 -20 30 0 9 -9 22 -20 30 -11 8 -20 22 -20 32 0 10
-4 18 -10 18 -5 0 -10 8 -10 18 0 10 -9 24 -20 32 -11 8 -20 21 -20 30 0 9 -9
22 -20 30 -11 8 -20 21 -20 30 0 9 -9 22 -20 30 -11 8 -20 21 -20 30 0 9 -9
22 -20 30 -11 8 -20 21 -20 30 0 9 -9 22 -20 30 -11 8 -20 20 -20 28 0 7 -11
24 -25 37 -20 21 -34 25 -80 25 l-55 0 0 -460z"/>
<path d="M4840 820 l0 -460 70 0 70 0 0 190 0 190 190 0 190 0 0 70 0 70 -190
0 -190 0 0 140 0 140 220 0 220 0 0 60 0 60 -290 0 -290 0 0 -460z"/>
<path d="M5780 1270 c0 -5 -13 -10 -28 -10 -16 0 -34 -8 -42 -20 -8 -11 -20
-20 -28 -20 -17 0 -62 -45 -62 -62 0 -8 -9 -20 -20 -28 -12 -8 -20 -26 -20
-42 0 -15 -4 -28 -10 -28 -6 0 -10 -87 -10 -240 0 -153 4 -240 10 -240 6 0 10
-13 10 -28 0 -16 8 -34 20 -42 11 -8 20 -20 20 -28 0 -17 45 -62 62 -62 8 0
20 -9 28 -20 8 -12 26 -20 42 -20 15 0 28 -4 28 -10 0 -6 43 -10 110 -10 67 0
110 4 110 10 0 6 9 10 20 10 11 0 20 5 20 10 0 6 7 10 15 10 20 0 105 85 105
105 0 8 5 15 10 15 6 0 10 9 10 20 0 11 5 20 10 20 6 0 10 27 10 60 0 33 4 60
10 60 6 0 10 53 10 140 0 87 -4 140 -10 140 -6 0 -10 27 -10 60 0 33 -4 60
-10 60 -5 0 -10 11 -10 25 0 28 -99 135 -125 135 -8 0 -15 5 -15 10 0 6 -9 10
-20 10 -11 0 -20 5 -20 10 0 6 -43 10 -110 10 -67 0 -110 -4 -110 -10z m160
-120 c0 -5 9 -10 20 -10 11 0 20 -4 20 -10 0 -5 9 -10 20 -10 13 0 20 -7 20
-18 0 -10 9 -24 20 -32 16 -12 20 -26 20 -72 0 -32 4 -58 10 -58 6 0 10 -50
10 -130 0 -80 -4 -130 -10 -130 -5 0 -10 -22 -10 -48 0 -36 -5 -51 -20 -62
-11 -8 -20 -22 -20 -32 0 -11 -7 -18 -20 -18 -11 0 -20 -4 -20 -10 0 -5 -9
-10 -20 -10 -11 0 -20 -4 -20 -10 0 -5 -22 -10 -50 -10 -27 0 -50 5 -50 10 0
6 -11 10 -25 10 -34 0 -95 61 -95 95 0 14 -4 25 -10 25 -6 0 -10 73 -10 200 0
127 4 200 10 200 6 0 10 11 10 25 0 29 59 95 85 95 8 0 15 5 15 10 0 6 27 10
60 10 33 0 60 -4 60 -10z"/>
<path d="M6420 820 l0 -460 70 0 70 0 0 190 0 190 90 0 c83 0 90 -1 90 -20 0
-11 5 -20 10 -20 6 0 10 -9 10 -20 0 -11 5 -20 10 -20 6 0 10 -9 10 -20 0 -11
5 -20 10 -20 6 0 10 -9 10 -20 0 -11 5 -20 10 -20 6 0 10 -9 10 -20 0 -11 5
-20 10 -20 6 0 10 -9 10 -20 0 -11 5 -20 10 -20 6 0 10 -9 10 -20 0 -11 5 -20
10 -20 6 0 10 -9 10 -20 0 -11 5 -20 10 -20 6 0 10 -7 10 -16 0 -33 26 -44
104 -44 69 0 76 2 76 20 0 11 -4 20 -10 20 -5 0 -10 8 -10 18 0 10 -9 24 -20
32 -11 8 -20 22 -20 32 0 10 -4 18 -10 18 -5 0 -10 9 -10 20 0 11 -4 20 -10
20 -5 0 -10 9 -10 20 0 11 -4 20 -10 20 -5 0 -10 9 -10 20 0 11 -4 20 -10 20
-5 0 -10 9 -10 20 0 11 -4 20 -10 20 -5 0 -10 9 -10 20 0 11 -4 20 -10 20 -5
0 -10 9 -10 20 0 11 -4 20 -10 20 -5 0 -10 9 -10 20 0 15 7 20 25 20 35 0 135
100 135 135 0 14 5 25 10 25 6 0 10 30 10 70 0 40 -4 70 -10 70 -5 0 -10 13
-10 28 0 16 -8 34 -20 42 -11 8 -20 20 -20 28 0 18 -25 42 -44 42 -9 0 -16 5
-16 10 0 6 -9 10 -20 10 -11 0 -20 5 -20 10 0 6 -9 10 -20 10 -11 0 -20 5 -20
10 0 6 -80 10 -220 10 l-220 0 0 -460z m360 330 c0 -5 14 -10 30 -10 17 0 30
-4 30 -10 0 -5 7 -10 16 -10 23 0 44 -25 44 -54 0 -14 5 -26 10 -26 6 0 10
-13 10 -30 0 -16 -4 -30 -10 -30 -5 0 -10 -12 -10 -26 0 -29 -21 -54 -44 -54
-9 0 -16 -4 -16 -10 0 -5 -13 -10 -30 -10 -16 0 -30 -4 -30 -10 0 -6 -43 -10
-110 -10 l-110 0 0 150 0 150 110 0 c67 0 110 -4 110 -10z"/>
<path d="M7260 820 l0 -460 70 0 70 0 0 290 c0 187 4 290 10 290 6 0 10 -9 10
-20 0 -11 5 -20 10 -20 6 0 10 -9 10 -20 0 -11 5 -20 10 -20 6 0 10 -9 10 -20
0 -11 5 -20 10 -20 6 0 10 -9 10 -20 0 -11 5 -20 10 -20 6 0 10 -9 10 -20 0
-11 5 -20 10 -20 6 0 10 -9 10 -20 0 -11 5 -20 10 -20 6 0 10 -9 10 -20 0 -11
5 -20 10 -20 6 0 10 -13 10 -30 0 -16 5 -30 10 -30 6 0 10 -7 10 -15 0 -9 11
-27 25 -40 18 -19 35 -25 70 -25 38 0 45 3 45 20 0 11 5 20 10 20 6 0 10 9 10
20 0 11 5 20 10 20 6 0 10 9 10 20 0 11 5 20 10 20 6 0 10 9 10 20 0 11 5 20
10 20 6 0 10 9 10 20 0 11 5 20 10 20 6 0 10 14 10 30 0 17 5 30 10 30 6 0 10
9 10 20 0 11 5 20 10 20 6 0 10 9 10 20 0 11 5 20 10 20 6 0 10 9 10 20 0 11
5 20 10 20 6 0 10 9 10 20 0 11 5 20 10 20 6 0 10 -103 10 -290 l0 -290 70 0
70 0 0 460 0 460 -66 0 c-73 0 -94 -12 -94 -54 0 -14 -4 -26 -10 -26 -5 0 -10
-9 -10 -20 0 -11 -4 -20 -10 -20 -5 0 -10 -9 -10 -20 0 -11 -4 -20 -10 -20 -5
0 -10 -9 -10 -20 0 -11 -4 -20 -10 -20 -5 0 -10 -9 -10 -20 0 -11 -4 -20 -10
-20 -5 0 -10 -9 -10 -20 0 -11 -4 -20 -10 -20 -5 0 -10 -13 -10 -30 0 -16 -4
-30 -10 -30 -5 0 -10 -9 -10 -20 0 -11 -4 -20 -10 -20 -5 0 -10 -9 -10 -20 0
-11 -4 -20 -10 -20 -5 0 -10 -9 -10 -20 0 -11 -4 -20 -10 -20 -5 0 -10 -9 -10
-20 0 -11 -4 -20 -10 -20 -5 0 -10 -9 -10 -20 0 -13 -7 -20 -20 -20 -13 0 -20
7 -20 20 0 11 -4 20 -10 20 -5 0 -10 9 -10 20 0 11 -4 20 -10 20 -5 0 -10 9
-10 20 0 11 -4 20 -10 20 -5 0 -10 14 -10 30 0 17 -4 30 -10 30 -5 0 -10 9
-10 20 0 11 -4 20 -10 20 -5 0 -10 9 -10 20 0 11 -4 20 -10 20 -5 0 -10 9 -10
20 0 11 -4 20 -10 20 -5 0 -10 9 -10 20 0 11 -4 20 -10 20 -5 0 -10 9 -10 20
0 11 -4 20 -10 20 -5 0 -10 9 -10 20 0 11 -4 20 -10 20 -5 0 -10 9 -10 20 0
11 -4 20 -10 20 -5 0 -10 12 -10 26 0 42 -21 54 -94 54 l-66 0 0 -460z"/>
<path d="M8520 1260 c0 -11 -4 -20 -10 -20 -5 0 -10 -13 -10 -30 0 -16 -4 -30
-10 -30 -5 0 -10 -13 -10 -30 0 -16 -4 -30 -10 -30 -5 0 -10 -9 -10 -20 0 -11
-4 -20 -10 -20 -5 0 -10 -13 -10 -30 0 -16 -4 -30 -10 -30 -5 0 -10 -13 -10
-30 0 -16 -4 -30 -10 -30 -5 0 -10 -9 -10 -20 0 -11 -4 -20 -10 -20 -5 0 -10
-13 -10 -30 0 -16 -4 -30 -10 -30 -5 0 -10 -13 -10 -30 0 -16 -4 -30 -10 -30
-5 0 -10 -13 -10 -30 0 -16 -4 -30 -10 -30 -5 0 -10 -9 -10 -20 0 -11 -4 -20
-10 -20 -5 0 -10 -13 -10 -30 0 -16 -4 -30 -10 -30 -5 0 -10 -13 -10 -30 0
-16 -4 -30 -10 -30 -5 0 -10 -13 -10 -30 0 -16 -4 -30 -10 -30 -5 0 -10 -9
-10 -20 0 -11 -4 -20 -10 -20 -5 0 -10 -13 -10 -30 0 -16 -4 -30 -10 -30 -5 0
-10 -13 -10 -30 l0 -30 70 0 c63 0 70 2 70 20 0 11 5 20 10 20 6 0 10 14 10
30 0 17 5 30 10 30 6 0 10 9 10 20 0 11 5 20 10 20 6 0 10 9 10 20 0 19 7 20
176 20 190 0 204 -4 204 -54 0 -14 5 -26 10 -26 6 0 10 -13 10 -30 0 -16 5
-30 10 -30 6 0 10 -9 10 -20 0 -18 7 -20 70 -20 l70 0 0 30 c0 17 -4 30 -10
30 -5 0 -10 14 -10 30 0 17 -4 30 -10 30 -5 0 -10 14 -10 30 0 17 -4 30 -10
30 -5 0 -10 14 -10 30 0 17 -4 30 -10 30 -5 0 -10 9 -10 20 0 11 -4 20 -10 20
-5 0 -10 14 -10 30 0 17 -4 30 -10 30 -5 0 -10 14 -10 30 0 17 -4 30 -10 30
-5 0 -10 14 -10 30 0 17 -4 30 -10 30 -5 0 -10 9 -10 20 0 11 -4 20 -10 20 -5
0 -10 14 -10 30 0 17 -4 30 -10 30 -5 0 -10 14 -10 30 0 17 -4 30 -10 30 -5 0
-10 9 -10 20 0 11 -4 20 -10 20 -5 0 -10 14 -10 30 0 17 -4 30 -10 30 -5 0
-10 14 -10 30 0 17 -4 30 -10 30 -5 0 -10 14 -10 30 0 17 -4 30 -10 30 -5 0
-10 9 -10 20 0 11 -4 20 -10 20 -5 0 -10 9 -10 20 0 18 -7 20 -60 20 -53 0
-60 -2 -60 -20z m80 -240 c0 -11 5 -20 10 -20 6 0 10 -13 10 -30 0 -16 5 -30
10 -30 6 0 10 -13 10 -30 0 -16 5 -30 10 -30 6 0 10 -13 10 -30 0 -16 5 -30
10 -30 6 0 10 -13 10 -30 0 -16 5 -30 10 -30 6 0 10 -13 10 -30 0 -16 5 -30
10 -30 6 0 10 -9 10 -20 0 -19 -7 -20 -130 -20 l-130 0 0 40 c0 22 5 40 10 40
6 0 10 14 10 30 0 17 5 30 10 30 6 0 10 14 10 30 0 17 5 30 10 30 6 0 10 9 10
20 0 11 5 20 10 20 6 0 10 14 10 30 0 17 5 30 10 30 6 0 10 11 10 25 0 25 17
54 33 55 4 0 7 -9 7 -20z"/>
<path d="M9020 1220 l0 -60 116 0 c87 0 119 -4 130 -14 12 -12 14 -79 14 -400
l0 -386 70 0 70 0 0 400 0 400 120 0 120 0 0 60 0 60 -320 0 -320 0 0 -60z"/>
<path d="M9820 820 l0 -460 70 0 70 0 0 460 0 460 -70 0 -70 0 0 -460z"/>
<path d="M10200 820 l0 -460 70 0 70 0 0 138 c0 126 2 139 20 152 11 8 20 20
20 27 0 8 25 38 55 69 49 48 57 53 70 40 8 -8 15 -22 15 -30 0 -9 5 -16 10
-16 6 0 10 -9 10 -20 0 -11 5 -20 10 -20 6 0 10 -8 10 -18 0 -10 9 -24 20 -32
11 -8 20 -22 20 -32 0 -10 5 -18 10 -18 6 0 10 -9 10 -20 0 -11 5 -20 10 -20
6 0 10 -8 10 -18 0 -10 9 -24 20 -32 11 -8 20 -22 20 -32 0 -10 5 -18 10 -18
6 0 10 -9 10 -20 0 -11 5 -20 10 -20 6 0 10 -7 10 -16 0 -33 26 -44 104 -44
69 0 76 2 76 20 0 11 -4 20 -10 20 -5 0 -10 8 -10 18 0 10 -9 24 -20 32 -11 8
-20 22 -20 32 0 10 -4 18 -10 18 -5 0 -10 8 -10 18 0 10 -9 24 -20 32 -11 8
-20 22 -20 32 0 10 -4 18 -10 18 -5 0 -10 8 -10 18 0 10 -9 24 -20 32 -11 8
-20 22 -20 32 0 10 -4 18 -10 18 -5 0 -10 9 -10 20 0 11 -4 20 -10 20 -5 0
-10 8 -10 18 0 10 -9 24 -20 32 -11 8 -20 22 -20 32 0 10 -4 18 -10 18 -5 0
-10 7 -10 16 0 9 -10 26 -22 37 -16 13 -19 21 -10 24 6 3 12 11 12 19 0 9 23
37 50 64 28 27 50 54 50 60 0 6 23 33 50 60 28 27 50 54 50 60 0 6 18 29 40
50 22 21 40 41 40 44 0 3 -38 6 -85 6 -78 0 -88 -2 -110 -25 -14 -13 -25 -29
-25 -35 0 -6 -22 -33 -50 -60 -27 -27 -50 -54 -50 -60 0 -6 -18 -29 -40 -50
-22 -21 -40 -44 -40 -50 0 -6 -18 -29 -40 -50 -22 -21 -40 -43 -40 -50 0 -11
-44 -60 -55 -60 -3 0 -5 99 -5 220 l0 220 -70 0 -70 0 0 -460z"/>
<path d="M11260 1260 c0 -11 -4 -20 -10 -20 -5 0 -10 -13 -10 -30 0 -16 -4
-30 -10 -30 -5 0 -10 -13 -10 -30 0 -16 -4 -30 -10 -30 -5 0 -10 -9 -10 -20 0
-11 -4 -20 -10 -20 -5 0 -10 -13 -10 -30 0 -16 -4 -30 -10 -30 -5 0 -10 -13
-10 -30 0 -16 -4 -30 -10 -30 -5 0 -10 -13 -10 -30 0 -16 -4 -30 -10 -30 -5 0
-10 -9 -10 -20 0 -11 -4 -20 -10 -20 -5 0 -10 -13 -10 -30 0 -16 -4 -30 -10
-30 -5 0 -10 -13 -10 -30 0 -16 -4 -30 -10 -30 -5 0 -10 -9 -10 -20 0 -11 -4
-20 -10 -20 -5 0 -10 -13 -10 -30 0 -16 -4 -30 -10 -30 -5 0 -10 -13 -10 -30
0 -16 -4 -30 -10 -30 -5 0 -10 -13 -10 -30 0 -16 -4 -30 -10 -30 -5 0 -10 -9
-10 -20 0 -11 -4 -20 -10 -20 -5 0 -10 -13 -10 -30 0 -16 -4 -30 -10 -30 -5 0
-10 -13 -10 -30 l0 -30 70 0 c63 0 70 2 70 20 0 11 5 20 10 20 6 0 10 9 10 20
0 11 5 20 10 20 6 0 10 14 10 30 0 17 5 30 10 30 6 0 10 9 10 20 0 19 7 20
176 20 190 0 204 -4 204 -54 0 -14 5 -26 10 -26 6 0 10 -13 10 -30 0 -16 5
-30 10 -30 6 0 10 -9 10 -20 0 -18 7 -20 80 -20 47 0 80 4 80 10 0 6 -4 10
-10 10 -5 0 -10 14 -10 30 0 17 -4 30 -10 30 -5 0 -10 9 -10 20 0 11 -4 20
-10 20 -5 0 -10 14 -10 30 0 17 -4 30 -10 30 -5 0 -10 14 -10 30 0 17 -4 30
-10 30 -5 0 -10 9 -10 20 0 11 -4 20 -10 20 -5 0 -10 14 -10 30 0 17 -4 30
-10 30 -5 0 -10 14 -10 30 0 17 -4 30 -10 30 -5 0 -10 14 -10 30 0 17 -4 30
-10 30 -5 0 -10 9 -10 20 0 11 -4 20 -10 20 -5 0 -10 14 -10 30 0 17 -4 30
-10 30 -5 0 -10 14 -10 30 0 17 -4 30 -10 30 -5 0 -10 14 -10 30 0 17 -4 30
-10 30 -5 0 -10 9 -10 20 0 11 -4 20 -10 20 -5 0 -10 14 -10 30 0 17 -4 30
-10 30 -5 0 -10 14 -10 30 0 17 -4 30 -10 30 -5 0 -10 9 -10 20 0 11 -4 20
-10 20 -5 0 -10 9 -10 20 0 18 -7 20 -60 20 -53 0 -60 -2 -60 -20z m80 -240
c0 -11 5 -20 10 -20 6 0 10 -13 10 -30 0 -16 5 -30 10 -30 6 0 10 -13 10 -30
0 -16 5 -30 10 -30 6 0 10 -13 10 -30 0 -16 5 -30 10 -30 6 0 10 -13 10 -30 0
-16 5 -30 10 -30 6 0 10 -13 10 -30 0 -16 5 -30 10 -30 6 0 10 -9 10 -20 0
-19 -7 -20 -130 -20 l-130 0 0 40 c0 22 5 40 10 40 6 0 10 14 10 30 0 17 5 30
10 30 6 0 10 14 10 30 0 17 5 30 10 30 6 0 10 9 10 20 0 11 5 20 10 20 6 0 10
14 10 30 0 17 5 30 10 30 6 0 10 11 10 25 0 25 17 54 33 55 4 0 7 -9 7 -20z"/>
</g>
</svg>
